<svg xmlns="http://www.w3.org/2000/svg" viewBox="0 0 40 40"><g fill="none" fill-rule="evenodd"><path d="M0 0h40v40H0z"/><g transform="translate(3.333 3.126)"><path fill="#286FFF" fill-rule="nonzero" d="M26.605 10.76l-3.028.812 1.567-2.713c.55.58 1.04 1.217 1.46 1.9z"/><path fill="#286FFF" fill-opacity=".6" fill-rule="nonzero" d="M31.58 9.427l-3.304.886a13.385 13.385 0 00-2.268-2.953L27.72 4.4a16.727 16.727 0 013.86 5.027z"/><path fill="#286FFF" fill-opacity=".2" fill-rule="nonzero" d="M36.488 8.112l-3.267.874a18.398 18.398 0 00-4.653-6.058L30.258 0a21.739 21.739 0 016.23 8.112z"/><path fill="#286FFF" d="M16.667.208c3.036 0 5.882.812 8.334 2.23l-8.334 14.436 16.102-4.315a16.69 16.69 0 01.564 4.315c0 9.205-7.462 16.667-16.666 16.667C7.462 33.541 0 26.079 0 16.874 0 7.67 7.462.208 16.667.208z"/><circle cx="16.667" cy="16.874" r="8.333" fill="#FFF"/><path fill="#286FFF" d="M16.667 11.874c.7 0 1.366.144 1.97.404A2.499 2.499 0 0020 16.874a2.49 2.49 0 001.63-.604 5.002 5.002 0 01-4.963 5.604 5 5 0 110-10z"/></g></g></svg>
